<?xml version="1.0" standalone="no"?>
<!DOCTYPE svg PUBLIC "-//W3C//DTD SVG 20010904//EN"
 "http://www.w3.org/TR/2001/REC-SVG-20010904/DTD/svg10.dtd">
<svg version="1.0" xmlns="http://www.w3.org/2000/svg"
 width="114.000000pt" height="114.000000pt" viewBox="0 0 114.000000 114.000000"
 preserveAspectRatio="xMidYMid meet">
<metadata>
Created by potrace 1.14, written by Peter Selinger 2001-2017
</metadata>
<g transform="translate(0.000000,114.000000) scale(0.100000,-0.100000)"
fill="#000000" stroke="none">
<path d="M333 972 l-223 -127 0 -270 1 -270 221 -129 c122 -72 229 -130 237
-130 9 -1 116 55 239 123 l222 125 0 270 0 271 -222 130 c-122 72 -229 131
-237 132 -9 1 -116 -56 -238 -125z m296 -233 c37 -13 61 -53 61 -104 0 -28 -7
-44 -31 -66 l-30 -28 35 -64 c42 -74 42 -77 16 -77 -14 0 -30 20 -57 70 -38
69 -38 70 -80 70 l-42 0 -3 -67 c-2 -55 -6 -68 -20 -71 -17 -3 -18 10 -18 172
l0 176 69 0 c37 0 82 -5 100 -11z"/>
<path d="M500 645 l0 -65 58 0 c68 0 92 18 92 67 0 45 -27 63 -93 63 l-57 0 0
-65z"/>
</g>
</svg>
